<svg width="1440" height="1024" viewBox="0 0 1440 1024" fill="none" xmlns="http://www.w3.org/2000/svg">
  <defs>
    <linearGradient id="bg" x1="0" y1="0" x2="1440" y2="1024" gradientUnits="userSpaceOnUse">
      <stop stop-color="#F7FBEF"/>
      <stop offset="1" stop-color="#E7F3D6"/>
    </linearGradient>
    <radialGradient id="sun" cx="0" cy="0" r="1" gradientUnits="userSpaceOnUse" gradientTransform="translate(1120 170) rotate(90) scale(180 180)">
      <stop stop-color="#FFD66B" stop-opacity="0.9"/>
      <stop offset="1" stop-color="#FFD66B" stop-opacity="0"/>
    </radialGradient>
  </defs>

  <rect width="1440" height="1024" fill="url(#bg)"/>
  <ellipse cx="1120" cy="170" rx="180" ry="180" fill="url(#sun)"/>

  <path d="M0 784C174 726 360 726 534 784C718 846 910 850 1080 792C1204 750 1326 736 1440 760V1024H0V784Z" fill="#B6DB8E" fill-opacity="0.58"/>
  <path d="M0 856C182 822 352 838 520 896C696 958 896 964 1084 906C1222 866 1336 856 1440 874V1024H0V856Z" fill="#89BF5A" fill-opacity="0.42"/>

  <g fill="#568734" fill-opacity="0.2">
    <rect x="120" y="190" width="220" height="18" rx="9"/>
    <rect x="120" y="224" width="180" height="14" rx="7"/>
    <rect x="120" y="252" width="240" height="14" rx="7"/>
  </g>
</svg>
