<svg width="828" height="520" viewBox="0 0 828 520" fill="none" xmlns="http://www.w3.org/2000/svg">
  <defs>
    <linearGradient id="panel" x1="0" y1="0" x2="828" y2="520" gradientUnits="userSpaceOnUse">
      <stop stop-color="#477432"/>
      <stop offset="1" stop-color="#5C8C40"/>
    </linearGradient>
  </defs>

  <rect width="828" height="520" rx="30" fill="url(#panel)"/>

  <circle cx="660" cy="116" r="42" fill="#F5F9EA" fill-opacity="0.18"/>
  <circle cx="726" cy="166" r="24" fill="#F5F9EA" fill-opacity="0.12"/>

  <rect x="64" y="94" width="220" height="144" rx="20" fill="#F4F9E8"/>
  <rect x="92" y="126" width="148" height="14" rx="7" fill="#6EA24A" fill-opacity="0.32"/>
  <rect x="92" y="150" width="112" height="10" rx="5" fill="#6EA24A" fill-opacity="0.22"/>
  <rect x="92" y="172" width="132" height="10" rx="5" fill="#6EA24A" fill-opacity="0.16"/>

  <rect x="314" y="116" width="286" height="166" rx="22" fill="#FAFCEF"/>
  <rect x="344" y="150" width="196" height="14" rx="7" fill="#6EA24A" fill-opacity="0.28"/>
  <rect x="344" y="174" width="152" height="10" rx="5" fill="#6EA24A" fill-opacity="0.2"/>
  <circle cx="548" cy="198" r="24" fill="#F1BE56"/>

  <path d="M0 366C92 324 178 320 274 344C372 368 466 420 564 412C662 404 752 350 828 294V520H0V366Z" fill="#2D4E21" fill-opacity="0.52"/>
</svg>
